<?xml version="1.0" encoding="iso-8859-1"?>
<!-- Generator: Adobe Illustrator 19.0.0, SVG Export Plug-In . SVG Version: 6.00 Build 0)  -->
<svg version="1.1" id="Layer_1" xmlns="http://www.w3.org/2000/svg" xmlns:xlink="http://www.w3.org/1999/xlink" x="0px" y="0px"
	 viewBox="0 0 512 512" style="enable-background:new 0 0 512 512;" xml:space="preserve">
<rect x="10.199" y="38.808" style="fill:#EDB2D8;" width="491.602" height="150.632"/>
<rect x="10.199" y="189.44" style="fill:#74C1F2;" width="491.602" height="78.238"/>
<g>
	<rect x="10.199" y="267.678" style="fill:#EDB2D8;" width="491.602" height="110.937"/>
	<rect x="10.199" y="378.605" style="fill:#EDB2D8;" width="37.951" height="94.587"/>
	<rect x="463.85" y="378.605" style="fill:#EDB2D8;" width="37.951" height="94.587"/>
</g>
<g>
	<path style="fill:#74C1F2;" d="M216.882,189.441H88.435v-16.348c0-18.058,14.638-32.696,32.696-32.696h63.056
		c18.058,0,32.696,14.638,32.696,32.696V189.441z"/>
	<path style="fill:#74C1F2;" d="M423.565,189.441H295.118v-16.348c0-18.058,14.638-32.696,32.696-32.696h63.056
		c18.058,0,32.696,14.638,32.696,32.696L423.565,189.441L423.565,189.441z"/>
</g>
<path d="M0,473.192c0,5.633,4.566,10.199,10.199,10.199h37.95c5.633,0,10.199-4.566,10.199-10.199v-84.384h395.303v84.384
	c0,5.633,4.567,10.199,10.199,10.199h37.95c5.632,0,10.199-4.566,10.199-10.199V38.808c0-5.633-4.567-10.199-10.199-10.199H10.199
	C4.566,28.609,0,33.175,0,38.808V473.192z M20.398,368.409v-90.533h471.203v90.533H20.398z M206.683,179.242H98.634v-6.149
	c0-12.404,10.092-22.496,22.496-22.496h63.056c12.404,0,22.496,10.092,22.496,22.496V179.242z M491.602,199.64v57.838H20.398V199.64
	H491.602z M413.366,179.242H305.317v-6.149c0-12.404,10.092-22.496,22.497-22.496h63.056c12.404,0,22.496,10.092,22.496,22.496
	v6.149H413.366z M20.398,49.007h471.203v130.235h-57.838v-6.149c0-23.652-19.242-42.895-42.895-42.895h-63.056
	c-23.652,0-42.896,19.243-42.896,42.895v6.149H227.08v-6.149c0-23.652-19.243-42.895-42.895-42.895H121.13
	c-23.652,0-42.895,19.243-42.895,42.895v6.149H20.398V49.007z M37.95,462.993H20.398v-74.185H37.95V462.993z M491.602,462.993
	H474.05v-74.185h17.552V462.993z"/>
<path d="M332.703,335.714h-8.977c-5.632,0-10.199,4.566-10.199,10.199c0,5.633,4.567,10.199,10.199,10.199h8.977
	c5.632,0,10.199-4.566,10.199-10.199C342.902,340.28,338.336,335.714,332.703,335.714z"/>
<path d="M467.354,335.714h-93.417c-5.632,0-10.199,4.566-10.199,10.199c0,5.633,4.567,10.199,10.199,10.199h93.417
	c5.632,0,10.199-4.566,10.199-10.199C477.553,340.28,472.986,335.714,467.354,335.714z"/>
<g>
</g>
<g>
</g>
<g>
</g>
<g>
</g>
<g>
</g>
<g>
</g>
<g>
</g>
<g>
</g>
<g>
</g>
<g>
</g>
<g>
</g>
<g>
</g>
<g>
</g>
<g>
</g>
<g>
</g>
</svg>
